<?xml version="1.0" encoding="UTF-8"?>
<!-- The Best Svg Icon site in the world: iconSvg.co, Visit us! https://iconsvg.co -->
<svg width="800px" height="800px" version="1.1" fill="#ffff" viewBox="144 144 512 512" xmlns="http://www.w3.org/2000/svg">
 <defs>
  <clipPath id="a">
   <path d="m148.09 148.09h503.81v503.81h-503.81z"/>
  </clipPath>
 </defs>
 <g clip-path="url(#a)">
  <path d="m650.54 638.05-45.344-136.45v0.003906c-4.6133-12.695-14.312-22.891-26.766-28.129v-20.992c0-2.7852-1.1055-5.457-3.0742-7.4219-1.9688-1.9688-4.6367-3.0742-7.4219-3.0742v-10.496c0.070312-13.957-5.4922-27.355-15.43-37.156-9.6836-10.035-23.105-15.59-37.051-15.324h-30.961c6.7305-12.984 10.324-27.363 10.496-41.984h12.699c7.6758-0.14063 14.988-3.2852 20.367-8.7617 5.3789-5.4766 8.3945-12.848 8.3906-20.523v-4.4102c-0.015624-8.6055-3.8633-16.762-10.496-22.25v-37.469c-0.027344-16.973-6.7812-33.242-18.781-45.246-12-12-28.27-18.754-45.242-18.781h-10.496c-2.3398-9.0586-7.6367-17.078-15.055-22.781-7.4141-5.707-16.523-8.7695-25.879-8.707h-52.48c-22.27 0-43.629 8.8477-59.375 24.594s-24.594 37.105-24.594 59.375v49.016c-6.6328 5.4883-10.477 13.645-10.496 22.25v4.4102c0 7.7656 3.0859 15.215 8.5781 20.707 5.4883 5.4922 12.938 8.5781 20.707 8.5781h12.699c0.17188 14.621 3.7656 29 10.496 41.984h-30.441c-13.918 0-27.266 5.5273-37.105 15.371-9.8438 9.8398-15.371 23.188-15.371 37.109v10.496h-1.0508c-5.7969 0-10.496 4.6992-10.496 10.496v18.996c-13.102 6.0703-23.125 17.27-27.711 30.965l-45.238 135.61c-1.0664 2.7109-0.95703 5.7383 0.29687 8.3672 1.2539 2.625 3.5391 4.6133 6.3164 5.4883 1.1172 0.14453 2.2461 0.14453 3.3594 0 4.7031 0.24609 8.9961-2.6719 10.496-7.1367l44.715-135.71c1.5781-4.6797 4.2422-8.9219 7.7656-12.383v144.74c0 2.7852 1.1055 5.4531 3.0742 7.4219s4.6367 3.0742 7.4219 3.0742h52.48c2.7812 0 5.4531-1.1055 7.4219-3.0742s3.0742-4.6367 3.0742-7.4219v-167.93l16.375-4.0938 46.602 72.734c1.8242 2.8555 4.9102 4.6523 8.2891 4.8281h0.52734c0.69922 0.050782 1.3984 0.050782 2.0977 0l-20.992 92.574v0.003906c-0.625 2.7266-0.13281 5.5938 1.3633 7.957 1.5 2.3672 3.8789 4.0352 6.6133 4.6367l2.1016-0.21094c5 0.125 9.3945-3.3047 10.496-8.1875l18.891-86.277 3.2539 5.2461v0.003906c1.8828 3.0117 5.1602 4.8672 8.7109 4.9336 3.4922 0.003906 6.7578-1.7266 8.7148-4.6211l4.1992-6.1914 19.207 86.906c1.0977 4.8828 5.4922 8.3125 10.496 8.1875h2.3086c2.7344-0.60156 5.1133-2.2695 6.6133-4.6328 1.4961-2.3672 1.9883-5.2344 1.3633-7.9609l-20.781-92.367c0.69531 0.050782 1.3984 0.050782 2.0977 0h0.52344c3.3828-0.17578 6.4688-1.9727 8.293-4.8281l45.973-72.422 16.582 3.7812v167.93c0 2.7852 1.1094 5.4531 3.0742 7.4219 1.9688 1.9688 4.6406 3.0742 7.4219 3.0742h52.48c2.7852 0 5.4531-1.1055 7.4219-3.0742s3.0742-4.6367 3.0742-7.4219v-142.75c3.1289 2.8867 5.5039 6.4883 6.9297 10.496l45.551 135.61c1.5 4.4648 5.793 7.3828 10.496 7.1367 1.1172 0.14453 2.2461 0.14453 3.3594 0 2.625-1.0469 4.7148-3.1055 5.8008-5.7109 1.0859-2.6094 1.0781-5.543-0.027344-8.1445zm-176.02-238.05h40.934c8.3516 0 16.363 3.3164 22.266 9.2227 5.9062 5.9023 9.2227 13.914 9.2227 22.266v10.496h-31.488c-5.7969 0-10.496 4.6992-10.496 10.496l-53.426-13.434 0.003906-22.988c7.168-4.7383 13.664-10.422 19.312-16.898 1.1602 0.51172 2.4062 0.79688 3.6719 0.83984zm-74.52 79.137-32.223-30.543v-22.879c10.32 3.7852 21.227 5.7383 32.223 5.7734 10.438-0.019531 20.797-1.793 30.648-5.25v22.461zm-73.473-142.11v-41.984h20.992c3.5117-0.019531 6.7812-1.793 8.7109-4.7227l12.281-18.371 12.281 18.367-0.003907 0.003906c1.9336 2.9297 5.2031 4.7031 8.7148 4.7227h83.969v41.984c0 26.246-14.004 50.504-36.738 63.629-22.73 13.125-50.738 13.125-73.473 0-22.73-13.125-36.734-37.383-36.734-63.629zm188.93-29.285h-0.003906c0 2.1992-0.87109 4.3086-2.4258 5.8633-1.5547 1.5547-3.6641 2.4297-5.8633 2.4297h-12.703v-20.992h12.703c2.1992 0 4.3086 0.87109 5.8633 2.4297 1.5547 1.5547 2.4258 3.6641 2.4258 5.8594zm-220.42-75.676c0-16.703 6.6328-32.723 18.445-44.531 11.809-11.809 27.828-18.445 44.531-18.445h52.48c5.5664 0 10.906 2.2109 14.844 6.1484 3.9336 3.9375 6.1484 9.2773 6.1484 14.844 0 2.7852 1.1055 5.4531 3.0742 7.4219 1.9648 1.9688 4.6367 3.0742 7.4219 3.0742h19.941c11.402 0.027343 22.332 4.5703 30.398 12.633 8.0625 8.0664 12.605 18.996 12.633 30.402v30.438h-109.79l-9.2383-13.75c-3.8984-5.8047-10.434-9.2852-17.422-9.2852-6.9922 0-13.523 3.4805-17.426 9.2852l-9.2344 13.75h-46.812zm-2.2031 83.969c-4.582 0-8.293-3.7148-8.293-8.293v-4.4102c0-4.5781 3.7109-8.2891 8.293-8.2891h12.699v20.992zm-38.73 115.46c0-8.3516 3.3164-16.363 9.2227-22.266 5.9023-5.9062 13.914-9.2227 22.262-9.2227h40.938c0.90625 0.097656 1.8203 0.097656 2.7266 0 5.1172 5.9023 10.973 11.125 17.426 15.531v24.035l-31.488 7.8711v0.003906c-1.0508 0.125-2.0781 0.40625-3.043 0.83984l-17.109 4.1992c0-2.7852-1.1055-5.457-3.0742-7.4219-1.9688-1.9688-4.6406-3.0742-7.4219-3.0742h-30.438zm19.941 199.42h-31.488v-167.93h31.488zm58.777-166.78 16.582-4.1992c0.19922 0.26562 0.375 0.54687 0.52734 0.83984l35.895 33.691-18.578 23.512zm67.176 74.102-9.5508-15.219 9.5508-12.281 10.496 12.703zm32.852-19.941-18.789-23.828 34.426-34.113v0.003906c0.26953-0.23437 0.48438-0.51953 0.63281-0.83984l17.949 4.5117zm124.59 112.62h-31.488v-167.93h31.488z"/>
 </g>
</svg>